<svg id="Layer_1" enable-background="new 0 0 509.65 509.65" height="512" viewBox="0 0 509.65 509.65" width="512" xmlns="http://www.w3.org/2000/svg"><g id="XMLID_1038_"><path style="fill:#FFFFFF;"  id="XMLID_1195_" d="m435 .058c-92.8 3.701-100.553 182.8-15 207.975v47.025c-2.478 59.713-87.544 59.667-90 0 0-6.132 0-239.969 0-255h-90v420c-3.305 79.618-116.724 79.556-120 0v-1.076c50.816-7.301 90-51.119 90-103.924-5.767-139.298-204.254-139.256-210 0 0 52.804 39.184 96.622 90 103.923v1.076c4.958 119.427 175.086 119.334 180 0v-240h30v75c4.131 99.522 145.906 99.445 150 0v-47.025c85.557-25.154 77.784-204.302-15-207.974zm-330 269.999c24.814 0 45 20.187 45 45h-30c-.826-19.905-29.182-19.889-30 0h-30c0-24.813 20.188-45 45-45z"/><path style="fill:#FFFFFF;" id="XMLID_1198_" d="m60 .058h150v180h-150z"/></g></svg>